{"title":"A Walk To Remember","uid":6806949,"size":733530112,"categoryP":"video","categoryS":"movies","magnet":"?xt=urn:btih:9d764d472721df9d683677c93a6a8e94abf76b55&amp;dn=A+Walk+To+Remember&amp;tr=udp%3A%2F%2Ftracker.openbittorrent.com%3A80&amp;tr=udp%3A%2F%2Fopen.demonii.com%3A1337&amp;tr=udp%3A%2F%2Ftracker.coppersurfer.tk%3A6969&amp;tr=udp%3A%2F%2Fexodus.desync.com%3A6969","seeders":20,"leechers":0,"uploader":"xbe","files":1,"time":1320901948,"description":" &lt;a href=&quot;http://img26.imageshack.us/img26/7830/nezabravimatarazhodkaaw.jpg&quot; rel=&quot;nofollow&quot; target=&quot;_NEW&quot;&gt;http://img26.imageshack.us/img26/7830/nezabravimatarazhodkaaw.jpg&lt;/a&gt;\n\nThe story of two North Carolina teens, Landon Carter and Jamie Sullivan, who are thrown together after Landon gets into trouble and is made to do community service.\n\nIMDB - http://www.imdb.com/title/tt0281358/\nWikipedia - http://en.wikipedia.org/wiki/A_Walk_to_Remember\nOfficial Website - http://awalktoremember.warnerbros.com/\nTrailer - \n\nIMDB -- 101 min   -  25 January 2002 (USA) | PG\nGenre: Drama | Romance \nIMDB rating: 7.1/10\nDirected by: Adam Shankman\nWriters: Nicholas Sparks (novel), Karen Janszen (screenplay)\nStarring: Stars: Mandy Moore, Shane West and Peter Coyote\n\nInfo (antivirus and video codecs)\nFile size: 699.5 Mb\nAntivirus (Kaspersky) check: ok (2011-09-02 04:07:16)\n\nVideo info:\nDuration: 01:41:48.85, start: 0.000000, bitrate: 960 kb/s\nStream #0.0: Video: msmpeg4, yuv420p, 640x272, 23.98 tbr, 23.98 tbn, 23.98 tbc\n\nAudio info:\nStream #0.1: Audio: mp3, 48000 Hz, 2 channels, s16, 130 kb/s\n\nScreenCaps\n","torrent":{"xt":"urn:btih:9d764d472721df9d683677c93a6a8e94abf76b55","amp;dn":"A+Walk+To+Remember","amp;tr":["udp%3A%2F%2Ftracker.openbittorrent.com%3A80","udp%3A%2F%2Fopen.demonii.com%3A1337","udp%3A%2F%2Ftracker.coppersurfer.tk%3A6969","udp%3A%2F%2Fexodus.desync.com%3A6969"],"infoHash":"9d764d472721df9d683677c93a6a8e94abf76b55","infoHashBuffer":{"type":"Buffer","data":[157,118,77,71,39,33,223,157,104,54,119,201,58,106,142,148,171,247,107,85]},"announce":[],"urlList":[]}}